# 3ds Max Wavefront OBJ Exporter v0.97b - (c)2007 guruware
# File Created: 12.03.2014 10:47:48

mtllib IceSpikes.mtl

#
# object n0b2
#

v  -89.4594 -31.6388 -33.9920
v  -59.8642 179.5518 -26.9982
v  -56.8588 131.4543 -39.9128
v  -63.1377 -34.0562 -71.2266
v  -39.9005 290.9788 -18.1933
v  -36.4521 289.5683 -26.3389
v  -90.9034 -26.6204 -17.9408
v  -29.3306 -50.4306 -17.1350
v  -76.9601 -32.3130 20.7631
v  -67.3462 43.8619 17.3757
v  -65.0218 138.8223 -18.9492
v  -37.3273 285.0771 -10.0208
v  -38.0370 -26.5212 47.7044
v  -29.2673 130.2020 19.7792
v  -29.8259 290.9788 -6.1123
v  12.2170 -30.8481 29.5925
v  -9.8583 144.3106 11.7643
v  -21.6924 288.9695 -8.6399
v  31.3225 -26.5212 -6.3845
v  7.0283 126.9656 -10.6995
v  -17.7448 290.9788 -16.1869
v  32.6116 -26.5212 -20.5898
v  19.9453 -26.5212 -57.8588
v  2.0182 132.2288 -42.9090
v  28.7673 2.6813 -20.4433
v  -18.9448 284.1757 -25.2140
v  -21.6378 -26.5212 -82.2680
v  -26.6965 225.9442 -43.5007
v  -27.8195 290.9788 -28.2680
v  -29.4669 325.4975 -16.5770
# 30 vertices

vn -0.8244 -0.5246 -0.2125
vn -0.9376 0.1731 -0.3016
vn -0.6884 0.1487 -0.7099
vn -0.4628 -0.5249 -0.7143
vn -0.9687 0.2482 0.0086
vn -0.6078 0.2296 -0.7601
vn -0.9068 -0.3950 0.1474
vn 0.0276 -0.9996 0.0067
vn -0.6794 -0.5268 0.5109
vn -0.7640 0.1609 0.6249
vn -0.9572 0.1529 0.2458
vn -0.7473 0.1796 0.6397
vn -0.1046 -0.4117 0.9053
vn -0.0570 0.1585 0.9857
vn -0.1328 0.2381 0.9621
vn 0.5758 -0.4929 0.6523
vn 0.5975 0.1560 0.7865
vn 0.6289 0.2140 0.7474
vn 0.8614 -0.4505 0.2346
vn 0.9175 0.1518 0.3675
vn 0.9602 0.2611 0.0991
vn 0.8766 -0.4716 -0.0960
vn 0.6884 -0.4565 -0.5637
vn 0.7860 0.1630 -0.5964
vn 0.9861 0.1347 0.0973
vn 0.7662 0.2291 -0.6004
vn 0.1467 -0.4255 -0.8930
vn -0.0246 0.2093 -0.9775
vn 0.1181 0.2640 -0.9573
vn -0.0175 0.9996 0.0240
# 30 vertex normals

vt 1.0977 0.0508 0.0000
vt 1.0938 0.6133 0.0000
vt 1.0352 0.4844 0.0000
vt 0.9805 0.0469 0.0000
vt 0.0938 0.6133 0.0000
vt 0.1406 0.9102 0.0000
vt 0.0156 0.9063 0.0000
vt 0.0352 0.4844 0.0000
vt 0.1367 0.0664 0.0000
vt 0.0977 0.0508 0.0000
vt 0.2852 0.0000 0.0000
vt 0.2461 0.0508 0.0000
vt 0.2539 0.2539 0.0000
vt 0.1367 0.5039 0.0000
vt 0.2578 0.8945 0.0000
vt 0.3633 0.0664 0.0000
vt 0.3828 0.4844 0.0000
vt 0.3672 0.9102 0.0000
vt 0.5000 0.0547 0.0000
vt 0.4766 0.5195 0.0000
vt 0.4844 0.9063 0.0000
vt 0.6055 0.0664 0.0000
vt 0.6016 0.4727 0.0000
vt 0.6055 0.9102 0.0000
vt 0.6445 0.0664 0.0000
vt 0.7461 0.0664 0.0000
vt 0.7461 0.4883 0.0000
vt 0.6445 0.1445 0.0000
vt 0.7383 0.8906 0.0000
vt 0.8711 0.0664 0.0000
vt 0.8750 0.7383 0.0000
vt 0.8789 0.9102 0.0000
vt 1.0156 0.9063 0.0000
vt 0.3008 1.0000 0.0000
vt 1.3008 1.0000 0.0000
vt 1.2852 0.0000 0.0000
# 36 texture coords

g n0b2
usemtl 01___Default
s 1
f 1/1/1 2/2/2 3/3/3 
f 4/4/4 1/1/1 3/3/3 
f 2/5/2 5/6/5 6/7/6 
f 3/8/3 2/5/2 6/7/6 
f 7/9/7 1/10/1 8/11/8 
f 9/12/9 7/9/7 8/11/8 
f 9/12/9 10/13/10 11/14/11 
f 7/9/7 9/12/9 11/14/11 
f 10/13/10 12/15/12 5/6/5 
f 11/14/11 10/13/10 5/6/5 
f 13/16/13 14/17/14 10/13/10 
f 9/12/9 13/16/13 10/13/10 
f 14/17/14 15/18/15 12/15/12 
f 10/13/10 14/17/14 12/15/12 
f 16/19/16 17/20/17 14/17/14 
f 13/16/13 16/19/16 14/17/14 
f 17/20/17 18/21/18 15/18/15 
f 14/17/14 17/20/17 15/18/15 
f 19/22/19 20/23/20 17/20/17 
f 16/19/16 19/22/19 17/20/17 
f 20/23/20 21/24/21 18/21/18 
f 17/20/17 20/23/20 18/21/18 
f 22/25/22 19/22/19 8/11/8 
f 23/26/23 22/25/22 8/11/8 
f 23/26/23 24/27/24 25/28/25 
f 22/25/22 23/26/23 25/28/25 
f 24/27/24 26/29/26 21/24/21 
f 25/28/25 24/27/24 21/24/21 
f 27/30/27 28/31/28 24/27/24 
f 23/26/23 27/30/27 24/27/24 
f 28/31/28 29/32/29 26/29/26 
f 24/27/24 28/31/28 26/29/26 
f 4/4/4 3/3/3 28/31/28 
f 27/30/27 4/4/4 28/31/28 
f 3/3/3 6/33/6 29/32/29 
f 28/31/28 3/3/3 29/32/29 
f 20/23/20 19/22/19 22/25/22 
f 25/28/25 20/23/20 22/25/22 
f 2/5/2 1/10/1 7/9/7 
f 11/14/11 2/5/2 7/9/7 
f 12/15/12 15/18/15 30/34/30 
f 16/19/16 13/16/13 8/11/8 
f 5/6/5 12/15/12 30/34/30 
f 21/24/21 26/29/26 30/34/30 
f 27/30/27 23/26/23 8/11/8 
f 13/16/13 9/12/9 8/11/8 
f 15/18/15 18/21/18 30/34/30 
f 26/29/26 29/32/29 30/34/30 
f 4/4/4 27/30/27 8/11/8 
f 19/22/19 16/19/16 8/11/8 
f 6/7/6 5/6/5 30/34/30 
f 29/32/29 6/33/6 30/35/30 
f 1/1/1 4/4/4 8/36/8 
f 21/24/21 20/23/20 25/28/25 
f 18/21/18 21/24/21 30/34/30 
f 5/6/5 2/5/2 11/14/11 
# 0 polygons - 56 triangles

#
# object n1b1
#

v  2.8696 -33.8911 -74.7263
v  14.3981 177.2994 -46.5858
v  26.6508 129.2020 -51.6544
v  48.4677 -36.3085 -74.9783
v  18.8504 288.7264 -25.2258
v  27.4819 287.3159 -27.1597
v  -11.0260 -28.8727 -66.5630
v  24.1386 -52.6829 -16.0129
v  -34.3949 -34.5654 -32.7060
v  -26.0469 41.6095 -26.8569
v  4.8509 136.5699 -46.0983
v  13.7000 282.8248 -18.3785
v  -33.6646 -28.7736 14.6259
v  -5.8494 127.9497 5.5134
v  14.8850 288.7264 -10.0033
v  10.3022 -33.1005 44.9643
v  11.9609 142.0583 16.6374
v  21.6725 286.7171 -4.8582
v  50.6794 -28.7736 39.5745
v  40.0559 124.7133 17.3041
v  30.1075 288.7264 -6.0379
v  62.9836 -28.7736 32.3591
v  85.9282 -28.7736 0.3754
v  63.3395 129.9764 -5.5088
v  60.6279 0.4290 29.3174
v  36.7517 281.9233 -12.2653
v  81.5910 -28.7736 -47.6469
v  47.1160 223.6918 -29.2086
v  34.0729 288.7264 -21.2604
v  23.6055 323.2452 -15.7992
# 30 vertices

vn -0.3068 -0.5246 -0.7941
vn -0.3001 0.1731 -0.9381
vn 0.1769 0.1487 -0.9729
vn 0.3118 -0.5249 -0.7920
vn -0.5705 0.2482 -0.7829
vn 0.2646 0.2296 -0.9366
vn -0.6474 -0.3950 -0.6518
vn 0.0106 -0.9996 0.0264
vn -0.8107 -0.5268 -0.2554
vn -0.9527 0.1609 -0.2579
vn -0.7568 0.1529 -0.6355
vn -0.9551 0.1796 -0.2357
vn -0.7972 -0.4117 0.4415
vn -0.8349 0.1585 0.5271
vn -0.8598 0.2381 0.4517
vn -0.1956 -0.4929 0.8478
vn -0.2921 0.1560 0.9436
vn -0.2421 0.2140 0.9464
vn 0.3103 -0.4505 0.8371
vn 0.2348 0.1518 0.9601
vn 0.4780 0.2611 0.8387
vn 0.5881 -0.4716 0.6571
vn 0.8589 -0.4565 0.2320
vn 0.9423 0.1630 0.2924
vn 0.4945 0.1347 0.8587
vn 0.9341 0.2291 0.2739
vn 0.8117 -0.4255 -0.4002
vn 0.7808 0.2093 -0.5887
vn 0.8473 0.2640 -0.4609
vn -0.0297 0.9996 -0.0003
# 30 vertex normals

vt 1.0977 0.0508 0.0000
vt 1.0938 0.6133 0.0000
vt 1.0352 0.4844 0.0000
vt 0.9805 0.0469 0.0000
vt 0.0938 0.6133 0.0000
vt 0.1406 0.9102 0.0000
vt 0.0156 0.9063 0.0000
vt 0.0352 0.4844 0.0000
vt 0.1367 0.0664 0.0000
vt 0.0977 0.0508 0.0000
vt 0.2852 0.0000 0.0000
vt 0.2461 0.0508 0.0000
vt 0.2539 0.2539 0.0000
vt 0.1367 0.5039 0.0000
vt 0.2578 0.8945 0.0000
vt 0.3633 0.0664 0.0000
vt 0.3828 0.4844 0.0000
vt 0.3672 0.9102 0.0000
vt 0.5000 0.0547 0.0000
vt 0.4766 0.5195 0.0000
vt 0.4844 0.9063 0.0000
vt 0.6055 0.0664 0.0000
vt 0.6016 0.4727 0.0000
vt 0.6055 0.9102 0.0000
vt 0.6445 0.0664 0.0000
vt 0.7461 0.0664 0.0000
vt 0.7461 0.4883 0.0000
vt 0.6445 0.1445 0.0000
vt 0.7383 0.8906 0.0000
vt 0.8711 0.0664 0.0000
vt 0.8750 0.7383 0.0000
vt 0.8789 0.9102 0.0000
vt 1.0156 0.9063 0.0000
vt 0.3008 1.0000 0.0000
vt 1.3008 1.0000 0.0000
vt 1.2852 0.0000 0.0000
# 36 texture coords

g n1b1
usemtl 01___Default
s 1
f 31/37/31 32/38/32 33/39/33 
f 34/40/34 31/37/31 33/39/33 
f 32/41/32 35/42/35 36/43/36 
f 33/44/33 32/41/32 36/43/36 
f 37/45/37 31/46/31 38/47/38 
f 39/48/39 37/45/37 38/47/38 
f 39/48/39 40/49/40 41/50/41 
f 37/45/37 39/48/39 41/50/41 
f 40/49/40 42/51/42 35/42/35 
f 41/50/41 40/49/40 35/42/35 
f 43/52/43 44/53/44 40/49/40 
f 39/48/39 43/52/43 40/49/40 
f 44/53/44 45/54/45 42/51/42 
f 40/49/40 44/53/44 42/51/42 
f 46/55/46 47/56/47 44/53/44 
f 43/52/43 46/55/46 44/53/44 
f 47/56/47 48/57/48 45/54/45 
f 44/53/44 47/56/47 45/54/45 
f 49/58/49 50/59/50 47/56/47 
f 46/55/46 49/58/49 47/56/47 
f 50/59/50 51/60/51 48/57/48 
f 47/56/47 50/59/50 48/57/48 
f 52/61/52 49/58/49 38/47/38 
f 53/62/53 52/61/52 38/47/38 
f 53/62/53 54/63/54 55/64/55 
f 52/61/52 53/62/53 55/64/55 
f 54/63/54 56/65/56 51/60/51 
f 55/64/55 54/63/54 51/60/51 
f 57/66/57 58/67/58 54/63/54 
f 53/62/53 57/66/57 54/63/54 
f 58/67/58 59/68/59 56/65/56 
f 54/63/54 58/67/58 56/65/56 
f 34/40/34 33/39/33 58/67/58 
f 57/66/57 34/40/34 58/67/58 
f 33/39/33 36/69/36 59/68/59 
f 58/67/58 33/39/33 59/68/59 
f 50/59/50 49/58/49 52/61/52 
f 55/64/55 50/59/50 52/61/52 
f 32/41/32 31/46/31 37/45/37 
f 41/50/41 32/41/32 37/45/37 
f 42/51/42 45/54/45 60/70/60 
f 46/55/46 43/52/43 38/47/38 
f 35/42/35 42/51/42 60/70/60 
f 51/60/51 56/65/56 60/70/60 
f 57/66/57 53/62/53 38/47/38 
f 43/52/43 39/48/39 38/47/38 
f 45/54/45 48/57/48 60/70/60 
f 56/65/56 59/68/59 60/70/60 
f 34/40/34 57/66/57 38/47/38 
f 49/58/49 46/55/46 38/47/38 
f 36/43/36 35/42/35 60/70/60 
f 59/68/59 36/69/36 60/71/60 
f 31/37/31 34/40/34 38/72/38 
f 51/60/51 50/59/50 55/64/55 
f 48/57/48 51/60/51 60/70/60 
f 35/42/35 32/41/32 41/50/41 
# 0 polygons - 56 triangles

#
# object n2b0
#

v  51.7387 -28.9138 -10.4849
v  27.4131 182.2767 7.7650
v  35.4068 134.1793 18.3444
v  63.4770 -31.3312 33.5772
v  7.8653 293.7037 17.4581
v  11.9125 292.2932 25.3233
v  40.3362 -23.8954 -21.8738
v  0.2830 -47.7056 24.8980
v  1.6816 -29.5881 -35.9533
v  -1.8741 46.5868 -26.4004
v  24.5347 141.5472 -1.3509
v  -0.0593 287.8021 14.2001
v  -43.9376 -23.7963 -23.3150
v  -28.1076 132.9270 1.3048
v  -7.8653 293.7037 17.4581
v  -62.2129 -28.1232 26.8798
v  -34.3827 147.0356 21.3441
v  -11.1332 291.6944 25.3233
v  -46.8188 -23.7963 64.5942
v  -27.9456 129.6906 48.6999
v  -7.8653 293.7037 33.1886
v  -36.7347 -23.7963 74.6822
v  0.0000 -23.7963 88.8233
v  0.0000 134.9537 65.4807
v  -34.3851 5.4063 71.6358
v  -0.1640 286.9006 38.0484
v  45.3782 -23.7963 72.5205
v  18.8448 228.6691 43.8069
v  7.8653 293.7037 33.1886
v  -0.0582 328.2225 24.4359
# 30 vertices

vn 0.6912 -0.5246 -0.4971
vn 0.8321 0.1731 -0.5269
vn 0.9861 0.1487 -0.0741
vn 0.8450 -0.5249 0.1021
vn 0.6137 0.2482 -0.7495
vn 0.9731 0.2296 0.0200
vn 0.4675 -0.3950 -0.7908
vn -0.0229 -0.9996 0.0169
vn 0.0428 -0.5268 -0.8489
vn 0.0094 0.1609 -0.9869
vn 0.4242 0.1529 -0.8925
vn -0.0127 0.1796 -0.9837
vn -0.6282 -0.4117 -0.6601
vn -0.7205 0.1585 -0.6751
vn -0.6538 0.2381 -0.7182
vn -0.8697 -0.4929 0.0244
vn -0.9867 0.1560 -0.0448
vn -0.9768 0.2140 0.0043
vn -0.7319 -0.4505 0.5113
vn -0.8699 0.1518 0.4693
vn -0.6911 0.2611 0.6740
vn -0.4876 -0.4716 0.7347
vn -0.0080 -0.4565 0.8897
vn -0.0454 0.1630 0.9856
vn -0.7063 0.1347 0.6950
vn -0.0296 0.2291 0.9730
vn 0.5918 -0.4255 0.6846
vn 0.7665 0.2093 0.6072
vn 0.6596 0.2640 0.7038
vn -0.0072 0.9996 -0.0288
# 30 vertex normals

vt 1.0977 0.0508 0.0000
vt 1.0938 0.6133 0.0000
vt 1.0352 0.4844 0.0000
vt 0.9805 0.0469 0.0000
vt 0.0938 0.6133 0.0000
vt 0.1406 0.9102 0.0000
vt 0.0156 0.9063 0.0000
vt 0.0352 0.4844 0.0000
vt 0.1367 0.0664 0.0000
vt 0.0977 0.0508 0.0000
vt 0.2852 0.0000 0.0000
vt 0.2461 0.0508 0.0000
vt 0.2539 0.2539 0.0000
vt 0.1367 0.5039 0.0000
vt 0.2578 0.8945 0.0000
vt 0.3633 0.0664 0.0000
vt 0.3828 0.4844 0.0000
vt 0.3672 0.9102 0.0000
vt 0.5000 0.0547 0.0000
vt 0.4766 0.5195 0.0000
vt 0.4844 0.9063 0.0000
vt 0.6055 0.0664 0.0000
vt 0.6016 0.4727 0.0000
vt 0.6055 0.9102 0.0000
vt 0.6445 0.0664 0.0000
vt 0.7461 0.0664 0.0000
vt 0.7461 0.4883 0.0000
vt 0.6445 0.1445 0.0000
vt 0.7383 0.8906 0.0000
vt 0.8711 0.0664 0.0000
vt 0.8750 0.7383 0.0000
vt 0.8789 0.9102 0.0000
vt 1.0156 0.9063 0.0000
vt 0.3008 1.0000 0.0000
vt 1.3008 1.0000 0.0000
vt 1.2852 0.0000 0.0000
# 36 texture coords

g n2b0
usemtl 01___Default
s 1
f 61/73/61 62/74/62 63/75/63 
f 64/76/64 61/73/61 63/75/63 
f 62/77/62 65/78/65 66/79/66 
f 63/80/63 62/77/62 66/79/66 
f 67/81/67 61/82/61 68/83/68 
f 69/84/69 67/81/67 68/83/68 
f 69/84/69 70/85/70 71/86/71 
f 67/81/67 69/84/69 71/86/71 
f 70/85/70 72/87/72 65/78/65 
f 71/86/71 70/85/70 65/78/65 
f 73/88/73 74/89/74 70/85/70 
f 69/84/69 73/88/73 70/85/70 
f 74/89/74 75/90/75 72/87/72 
f 70/85/70 74/89/74 72/87/72 
f 76/91/76 77/92/77 74/89/74 
f 73/88/73 76/91/76 74/89/74 
f 77/92/77 78/93/78 75/90/75 
f 74/89/74 77/92/77 75/90/75 
f 79/94/79 80/95/80 77/92/77 
f 76/91/76 79/94/79 77/92/77 
f 80/95/80 81/96/81 78/93/78 
f 77/92/77 80/95/80 78/93/78 
f 82/97/82 79/94/79 68/83/68 
f 83/98/83 82/97/82 68/83/68 
f 83/98/83 84/99/84 85/100/85 
f 82/97/82 83/98/83 85/100/85 
f 84/99/84 86/101/86 81/96/81 
f 85/100/85 84/99/84 81/96/81 
f 87/102/87 88/103/88 84/99/84 
f 83/98/83 87/102/87 84/99/84 
f 88/103/88 89/104/89 86/101/86 
f 84/99/84 88/103/88 86/101/86 
f 64/76/64 63/75/63 88/103/88 
f 87/102/87 64/76/64 88/103/88 
f 63/75/63 66/105/66 89/104/89 
f 88/103/88 63/75/63 89/104/89 
f 80/95/80 79/94/79 82/97/82 
f 85/100/85 80/95/80 82/97/82 
f 62/77/62 61/82/61 67/81/67 
f 71/86/71 62/77/62 67/81/67 
f 72/87/72 75/90/75 90/106/90 
f 76/91/76 73/88/73 68/83/68 
f 65/78/65 72/87/72 90/106/90 
f 81/96/81 86/101/86 90/106/90 
f 87/102/87 83/98/83 68/83/68 
f 73/88/73 69/84/69 68/83/68 
f 75/90/75 78/93/78 90/106/90 
f 86/101/86 89/104/89 90/106/90 
f 64/76/64 87/102/87 68/83/68 
f 79/94/79 76/91/76 68/83/68 
f 66/79/66 65/78/65 90/106/90 
f 89/104/89 66/105/66 90/107/90 
f 61/73/61 64/76/64 68/108/68 
f 81/96/81 80/95/80 85/100/85 
f 78/93/78 81/96/81 90/106/90 
f 65/78/65 62/77/62 71/86/71 
# 0 polygons - 56 triangles

