# Wavefront OBJ file
# Exported by Misfit Model 3D 1.3.8
# Sun Apr 02 10:48:31 2017

mtllib proxmine.mtl

# 30 Vertices
v 2.649351 6.800966 0.231502
v 3.026634 6.428078 -0.14072
v 1.133857 7.060606 -1.963898
v 0.860406 7.397587 -1.490266
v -1.391449 6.428078 -2.691502
v -1.525161 6.800966 -2.178655
v -2.306505 4.320569 -0.786267
v -2.393742 4.806705 -0.377354
v -0.86593 3.061034 1.499834
v -1.028896 3.618986 1.7821
v 1.834179 4.320569 1.604359
v 1.523669 4.806705 1.884365
v 1.150774 5.193403 1.834925
v 2.102861 6.881069 0.435864
v -1.010942 4.185225 1.751003
v -2.164479 5.193403 -0.079138
v -1.428899 6.881069 -1.603199
v 0.589716 7.386539 -1.021418
v -0.399129 2.862161 0.691312
v -0.083473 3.4284 1.527391
v -1.281023 3.428398 0.835985
v -0.836407 5.654679 -2.785676
v -1.655449 5.812121 -2.132678
v -0.583602 6.629714 -2.457921
v 2.420423 6.629714 -0.723545
v 2.674678 5.812121 0.367323
v 2.830669 5.654679 -0.668487
v -0.965367 2.862161 1.672064
v -1.541943 6.533039 -2.899589
v 3.282089 6.53304 -0.114432

# 141 Texture Coordinates
vt 1.054688 0.625
vt 1.015625 0.0
vt 2.5 0.0
vt 1.054688 0.625
vt 2.5 0.0
vt 2.5 0.625
vt 2.5 0.625
vt 2.5 0.0
vt 3.984375 0.0
vt 2.5 0.625
vt 3.984375 0.0
vt 3.945313 0.625
vt 3.945313 0.625
vt 3.984375 0.0
vt 5.664063 0.0
vt 3.945313 0.625
vt 5.664063 0.0
vt 5.664063 0.625
vt 5.664063 0.625
vt 5.664063 0.0
vt 7.5 0.0
vt 5.664063 0.625
vt 7.5 0.0
vt 7.5 0.625
vt 7.5 0.625
vt 7.5 0.0
vt 9.335938 0.0
vt 7.5 0.625
vt 9.335938 0.0
vt 9.335938 0.625
vt 9.335938 0.625
vt 9.335938 0.0
vt 11.01563 0.0
vt 9.335938 0.625
vt 11.01563 0.0
vt 11.05469 0.625
vt 9.335938 0.625
vt 11.05469 0.625
vt 9.375 1.0
vt 9.375 1.0
vt 11.05469 0.625
vt 11.05469 1.0
vt 9.335938 0.625
vt 7.5 1.0
vt 7.5 0.625
vt 9.335938 0.625
vt 9.375 1.0
vt 7.5 1.0
vt 7.5 0.625
vt 7.5 1.0
vt 5.625 1.0
vt 7.5 0.625
vt 5.625 1.0
vt 5.664063 0.625
vt 5.664063 0.625
vt 3.945313 1.0
vt 3.945313 0.625
vt 5.664063 0.625
vt 5.625 1.0
vt 3.945313 1.0
vt 3.945313 0.625
vt 2.5 1.0
vt 2.5 0.625
vt 3.945313 0.625
vt 3.945313 1.0
vt 2.5 1.0
vt 2.5 0.625
vt 2.5 1.0
vt 1.054688 1.0
vt 2.5 0.625
vt 1.054688 1.0
vt 1.054688 0.625
vt 0.0 0.320313
vt 0.5 -0.027344
vt 1.0 0.320313
vt 0.0 0.320313
vt 1.0 0.320313
vt 0.0 0.816406
vt 0.0 0.816406
vt 1.0 0.320313
vt 1.0 0.816406
vt 0.0 0.816406
vt 1.0 0.816406
vt 0.5 1.003906
vt 0.0 0.15625
vt 0.5 0.0
vt 1.0 0.15625
vt 0.0 0.15625
vt 1.0 0.15625
vt 0.03125 0.683594
vt 0.03125 0.683594
vt 1.0 0.15625
vt 0.96875 0.683594
vt 0.03125 0.683594
vt 0.96875 0.683594
vt 0.5 1.0
vt 0.3125 0.578125
vt 0.875 0.734375
vt 0.875 0.421875
vt 0.3125 0.578125
vt 0.875 0.734375
vt 0.875 0.421875
vt 0.875 0.421875
vt 0.875 0.734375
vt 0.3125 0.578125
vt 0.0 0.5625
vt 0.0 0.0
vt 1.0 0.5625
vt 0.0 0.5625
vt 1.0 0.5625
vt 0.445313 1.0
vt 0.0 0.5625
vt 1.0 0.5625
vt 0.0 0.0
vt 0.445313 1.0
vt 1.0 0.5625
vt 0.0 0.5625
vt 0.0 0.5625
vt 0.0 0.0
vt 1.0 0.5625
vt 0.0 0.5625
vt 1.0 0.5625
vt 0.445313 1.0
vt 0.445313 1.0
vt 1.0 0.5625
vt 0.0 0.5625
vt 0.0 0.5625
vt 1.0 0.5625
vt 0.0 0.0
vt 0.445313 1.0
vt 0.0 0.5625
vt 1.0 0.5625
vt 0.445313 1.0
vt 1.0 0.5625
vt 0.0 0.5625
vt 0.0 0.0
vt 1.0 0.5625
vt 0.0 0.5625
vt 0.0 0.5625
vt 1.0 0.5625
vt 0.0 0.0

# 141 Vertex Normals
vn 0.554499 0.735714 0.388917
vn 0.814134 0.410728 0.410474
vn 0.358681 0.845536 -0.395496
vn 0.554499 0.735714 0.388917
vn 0.358681 0.845536 -0.395496
vn 0.115864 0.965703 -0.232363
vn 0.115864 0.965703 -0.232363
vn 0.358681 0.845536 -0.395496
vn -0.400008 0.689091 -0.604274
vn 0.115864 0.965703 -0.232363
vn -0.400008 0.689091 -0.604274
vn -0.651861 0.707195 -0.273775
vn -0.651861 0.707195 -0.273775
vn -0.400008 0.689091 -0.604274
vn -0.989637 -0.069755 -0.125509
vn -0.651861 0.707195 -0.273775
vn -0.989637 -0.069755 -0.125509
vn -0.980399 0.049988 0.190574
vn -0.980399 0.049988 0.190574
vn -0.989637 -0.069755 -0.125509
vn -0.621255 -0.492784 0.609267
vn -0.980399 0.049988 0.190574
vn -0.621255 -0.492784 0.609267
vn -0.46943 -0.204524 0.858956
vn -0.46943 -0.204524 0.858956
vn -0.621255 -0.492784 0.609267
vn 0.386962 -0.259292 0.884889
vn -0.46943 -0.204524 0.858956
vn 0.386962 -0.259292 0.884889
vn 0.354878 0.072061 0.932131
vn 0.354878 0.072061 0.932131
vn 0.386962 -0.259292 0.884889
vn 0.814134 0.410728 0.410474
vn 0.354878 0.072061 0.932131
vn 0.814134 0.410728 0.410474
vn 0.554499 0.735714 0.388917
vn 0.354878 0.072061 0.932131
vn 0.554499 0.735714 0.388917
vn -0.071523 0.57091 0.817892
vn -0.071523 0.57091 0.817892
vn 0.554499 0.735714 0.388917
vn 0.011188 0.856254 0.516434
vn 0.354878 0.072061 0.932131
vn -0.372795 0.249751 0.893671
vn -0.46943 -0.204524 0.858956
vn 0.354878 0.072061 0.932131
vn -0.071523 0.57091 0.817892
vn -0.372795 0.249751 0.893671
vn -0.46943 -0.204524 0.858956
vn -0.372795 0.249751 0.893671
vn -0.719754 0.441335 0.53589
vn -0.46943 -0.204524 0.858956
vn -0.719754 0.441335 0.53589
vn -0.980399 0.049988 0.190574
vn -0.980399 0.049988 0.190574
vn -0.565113 0.745364 0.353666
vn -0.651861 0.707195 -0.273775
vn -0.980399 0.049988 0.190574
vn -0.719754 0.441335 0.53589
vn -0.565113 0.745364 0.353666
vn -0.651861 0.707195 -0.273775
vn -0.158433 0.976278 0.147584
vn 0.115864 0.965703 -0.232363
vn -0.651861 0.707195 -0.273775
vn -0.565113 0.745364 0.353666
vn -0.158433 0.976278 0.147584
vn 0.115864 0.965703 -0.232363
vn -0.158433 0.976278 0.147584
vn 0.011188 0.856254 0.516434
vn 0.115864 0.965703 -0.232363
vn 0.011188 0.856254 0.516434
vn 0.554499 0.735714 0.388917
vn -0.719754 0.441335 0.53589
vn -0.372795 0.249751 0.893671
vn -0.071523 0.57091 0.817892
vn -0.719754 0.441335 0.53589
vn -0.071523 0.57091 0.817892
vn -0.565113 0.745364 0.353666
vn -0.565113 0.745364 0.353666
vn -0.071523 0.57091 0.817892
vn 0.011188 0.856254 0.516434
vn -0.565113 0.745364 0.353666
vn 0.011188 0.856254 0.516434
vn -0.158433 0.976278 0.147584
vn 0.353553 -0.707107 -0.612372
vn 0.353553 -0.707108 -0.612372
vn 0.353553 -0.707107 -0.612372
vn 0.353553 -0.707107 -0.612372
vn 0.353553 -0.707107 -0.612372
vn 0.353554 -0.707107 -0.612372
vn 0.353554 -0.707107 -0.612372
vn 0.353553 -0.707107 -0.612372
vn 0.353554 -0.707107 -0.612373
vn 0.353554 -0.707107 -0.612372
vn 0.353554 -0.707107 -0.612373
vn 0.353554 -0.707106 -0.612373
vn -0.149638 -0.954166 0.259182
vn 0.171121 -0.636177 0.752328
vn -0.737094 -0.636178 0.227969
vn -0.303296 0.018323 -0.95272
vn -0.835821 -0.010689 -0.548899
vn -0.026585 0.605827 -0.795152
vn 0.701914 0.605827 -0.374553
vn 0.893271 -0.010689 0.449392
vn 0.976728 0.018323 -0.213699
vn -0.737094 -0.636178 0.227969
vn -0.149638 -0.954166 0.259182
vn -0.490989 -0.859292 0.143343
vn -0.737094 -0.636178 0.227969
vn -0.677794 -0.543117 0.4956
vn -0.46943 -0.204524 0.858956
vn 0.171121 -0.636177 0.752328
vn 0.121357 -0.859291 0.496881
vn -0.149638 -0.954166 0.259182
vn -0.46943 -0.204524 0.858956
vn -0.090305 -0.543116 0.834788
vn 0.171121 -0.636177 0.752328
vn -0.026585 0.605827 -0.795152
vn -0.303296 0.018323 -0.95272
vn -0.063724 0.30265 -0.950969
vn -0.026585 0.605827 -0.795152
vn -0.284153 0.675946 -0.679966
vn -0.651861 0.707195 -0.273775
vn -0.651861 0.707195 -0.273775
vn -0.807169 0.276915 -0.521342
vn -0.835821 -0.010689 -0.548899
vn -0.835821 -0.010689 -0.548899
vn -0.609154 -0.112198 -0.785075
vn -0.303296 0.018323 -0.95272
vn 0.554499 0.735714 0.388917
vn 0.893271 -0.010689 0.449392
vn 0.855079 0.276915 0.438357
vn 0.554499 0.735714 0.388917
vn 0.730944 0.675947 -0.093899
vn 0.701914 0.605827 -0.374553
vn 0.976728 0.018323 -0.213699
vn 0.984472 -0.112198 0.135004
vn 0.893271 -0.010689 0.449392
vn 0.701914 0.605827 -0.374553
vn 0.855425 0.30265 -0.420299
vn 0.976728 0.018323 -0.213699

# Mesh_0, 24 grouped triangles

usemtl prox_tex0
o Mesh_0
g Mesh_0

f 1/1/1 2/2/2 3/3/3
f 1/4/4 3/5/5 4/6/6
f 4/7/7 3/8/8 5/9/9
f 4/10/10 5/11/11 6/12/12
f 6/13/13 5/14/14 7/15/15
f 6/16/16 7/17/17 8/18/18
f 8/19/19 7/20/20 9/21/21
f 8/22/22 9/23/23 10/24/24
f 10/25/25 9/26/26 11/27/27
f 10/28/28 11/29/29 12/30/30
f 12/31/31 11/32/32 2/33/33
f 12/34/34 2/35/35 1/36/36
f 12/37/37 1/38/38 13/39/39
f 13/40/40 1/41/41 14/42/42
f 12/43/43 15/44/44 10/45/45
f 12/46/46 13/47/47 15/48/48
f 10/49/49 15/50/50 16/51/51
f 10/52/52 16/53/53 8/54/54
f 8/55/55 17/56/56 6/57/57
f 8/58/58 16/59/59 17/60/60
f 6/61/61 18/62/62 4/63/63
f 6/64/64 17/65/65 18/66/66
f 4/67/67 18/68/68 14/69/69
f 4/70/70 14/71/71 1/72/72
# Mesh_1, 4 grouped triangles

usemtl prox_tex1
o Mesh_1
g Mesh_1

f 16/73/73 15/74/74 13/75/75
f 16/76/76 13/77/77 17/78/78
f 17/79/79 13/80/80 14/81/81
f 17/82/82 14/83/83 18/84/84
# Mesh_2, 4 grouped triangles

usemtl prox_tex2
o Mesh_2
g Mesh_2

f 5/85/85 3/86/86 2/87/87
f 5/88/88 2/89/89 7/90/90
f 7/91/91 2/92/92 11/93/93
f 7/94/94 11/95/95 9/96/96
# Mesh_3, 15 grouped triangles

usemtl prox_tex3
o Mesh_3
g Mesh_3

f 19/97/97 20/98/98 21/99/99
f 22/100/100 23/101/101 24/102/102
f 25/103/103 26/104/104 27/105/105
f 21/106/106 19/107/107 28/108/108
f 21/109/109 28/110/110 10/111/111
f 20/112/112 28/113/113 19/114/114
f 10/115/115 28/116/116 20/117/117
f 24/118/118 22/119/119 29/120/120
f 24/121/121 29/122/122 6/123/123
f 6/124/124 29/125/125 23/126/126
f 23/127/127 29/128/128 22/129/129
f 1/130/130 26/131/131 30/132/132
f 1/133/133 30/134/134 25/135/135
f 27/136/136 30/137/137 26/138/138
f 25/139/139 30/140/140 27/141/141
